<svg viewBox="0 0 66 66" xmlns="http://www.w3.org/2000/svg" xmlns:xlink="http://www.w3.org/1999/xlink" width="66.000000" height="66.000000" fill="none">
	<rect id="hotel-key" width="66.000000" height="66.000000" x="0.000000" y="0.000000" fill="rgb(255,255,255)" fill-opacity="0" />
	<g id="Group">
		<path id="Vector" d="M38.4527 18.4851L19.207 18.4851C18.1758 18.4851 17.3379 17.6472 17.3379 16.616C17.3379 15.5847 18.1758 14.7468 19.207 14.7468L38.4527 14.7468C39.484 14.7468 40.3219 15.5847 40.3219 16.616C40.3219 17.6472 39.484 18.4851 38.4527 18.4851Z" fill="rgb(45,82,124)" fill-rule="nonzero" />
		<path id="Vector" d="M23.3191 49.4871L17.3766 49.4871C7.79883 49.4871 0 41.6883 0 32.1106C0 25.7684 3.45469 19.9289 9.02344 16.8739C9.92578 16.3711 11.073 16.7063 11.5758 17.6215C12.0785 18.5239 11.7434 19.6711 10.8281 20.1739C6.4582 22.5715 3.75117 27.1477 3.75117 32.1235C3.75117 39.6387 9.86133 45.7489 17.3766 45.7489L23.3191 45.7489C24.3504 45.7489 25.1883 46.5868 25.1883 47.618C25.2012 48.6364 24.3504 49.4871 23.3191 49.4871Z" fill="rgb(45,82,124)" fill-rule="nonzero" />
		<path id="Vector" d="M24.9176 63.2027C16.3711 63.2027 9.41016 56.2417 9.41016 47.6824C9.41016 46.6511 10.248 45.8132 11.2793 45.8132C12.3105 45.8132 13.1484 46.6511 13.1484 47.6824C13.1484 54.1664 18.4207 59.4515 24.9176 59.4515C31.4145 59.4515 36.6867 54.1792 36.6867 47.6824C36.6867 41.1984 31.4145 35.9132 24.9176 35.9132C21.6562 35.9132 18.627 37.2152 16.384 39.5742C15.675 40.3218 14.4891 40.3605 13.7285 39.6386C12.9809 38.9296 12.9422 37.7437 13.6641 36.9832C16.6289 33.8636 20.625 32.1492 24.9176 32.1492C33.477 32.1492 40.4379 39.1101 40.4379 47.6695C40.4379 56.2289 33.477 63.2027 24.9176 63.2027Z" fill="rgb(240,191,95)" fill-rule="nonzero" />
		<path id="Vector" d="M49.5645 45.7876L38.1177 45.7876C37.0864 45.7876 36.2485 44.9497 36.2485 43.9185C36.2485 42.8872 37.0864 42.0493 38.1177 42.0493L49.5645 42.0493C50.5958 42.0493 51.4337 42.8872 51.4337 43.9185C51.4337 44.9497 50.5958 45.7876 49.5645 45.7876Z" fill="rgb(240,191,95)" fill-rule="nonzero" />
		<path id="Vector" d="M61.8106 53.3286L38.5559 53.3286C37.5247 53.3286 36.6868 52.4907 36.6868 51.4594C36.6868 50.4282 37.5247 49.5903 38.5559 49.5903L61.8106 49.5903C62.0555 49.5903 62.2489 49.3969 62.2489 49.152L62.2489 38.5043C62.2489 38.1434 61.9524 37.8598 61.6043 37.8598L59.9801 37.8598C59.6192 37.8598 59.3356 38.1563 59.3356 38.5043L59.3356 43.5059C59.3356 44.5372 58.4977 45.375 57.4664 45.375C56.4352 45.375 55.5973 44.5372 55.5973 43.5059L55.5973 38.5043C55.5973 36.0809 57.5696 34.1086 59.993 34.1086L61.6172 34.1086C64.0406 34.1086 66.0129 36.0809 66.0129 38.5043L66.0129 49.152C66 51.4465 64.118 53.3286 61.8106 53.3286Z" fill="rgb(240,191,95)" fill-rule="nonzero" />
	</g>
	<path id="Vector" d="M24.9175 52.9418C27.8649 52.9418 30.2543 50.5524 30.2543 47.605C30.2543 44.6576 27.8649 42.2683 24.9175 42.2683C21.9701 42.2683 19.5808 44.6576 19.5808 47.605C19.5808 50.5524 21.9701 52.9418 24.9175 52.9418Z" fill="rgb(206,232,250)" fill-rule="evenodd" />
	<path id="Vector" d="M24.9175 54.8109C20.9472 54.8109 17.7117 51.5753 17.7117 47.605C17.7117 43.6347 20.9472 40.3992 24.9175 40.3992C28.8878 40.3992 32.1234 43.6347 32.1234 47.605C32.1234 51.5753 28.9007 54.8109 24.9175 54.8109ZM24.9175 44.1503C23.0097 44.1503 21.4628 45.6972 21.4628 47.605C21.4628 49.5128 23.0097 51.0597 24.9175 51.0597C26.8253 51.0597 28.3722 49.5128 28.3722 47.605C28.3722 45.6972 26.8253 44.1503 24.9175 44.1503Z" fill="rgb(240,191,95)" fill-rule="nonzero" />
	<path id="Vector" d="M27.8953 24.5694L27.8953 8.64951C27.8953 6.45811 29.6742 4.6792 31.8656 4.6792L60.1476 4.6792C62.339 4.6792 64.1179 6.45811 64.1179 8.64951L64.1179 24.5694C64.1179 26.7608 62.339 28.5397 60.1476 28.5397L31.8785 28.5397C29.6742 28.5397 27.8953 26.7608 27.8953 24.5694Z" fill="rgb(206,232,250)" fill-rule="nonzero" />
	<g id="Group">
		<path id="Vector" d="M60.1476 30.422L31.8785 30.422C28.6558 30.422 26.0261 27.7923 26.0261 24.5696L26.0261 8.64971C26.0261 5.42705 28.6558 2.79736 31.8785 2.79736L60.1605 2.79736C63.3832 2.79736 66.0128 5.42705 66.0128 8.64971L66.0128 24.5696C66 27.7923 63.3703 30.422 60.1476 30.422ZM31.8785 6.54853C30.7183 6.54853 29.7773 7.48955 29.7773 8.64971L29.7773 24.5696C29.7773 25.7298 30.7183 26.6708 31.8785 26.6708L60.1605 26.6708C61.3207 26.6708 62.2617 25.7298 62.2617 24.5696L62.2617 8.64971C62.2617 7.48955 61.3207 6.54853 60.1605 6.54853L31.8785 6.54853Z" fill="rgb(45,82,124)" fill-rule="nonzero" />
		<path id="Vector" d="M44.4468 17.7117L43.8152 17.7117L43.8152 16.5644C43.8152 15.907 43.1578 15.4816 42.1394 15.4816C41.1211 15.4816 40.4636 15.907 40.4636 16.5644L40.4636 17.7117L39.3164 17.7117L42.5519 11.2148C42.6035 11.0859 42.6679 10.9312 42.6679 10.7765C42.6679 9.9644 41.5851 9.46167 40.9922 9.46167C40.3734 9.46167 39.8707 9.77104 39.5871 10.3253L35.2043 18.9492C35.0496 19.2328 35.0238 19.4777 35.0238 19.6066C35.0238 20.3285 35.5008 20.8183 36.1968 20.8183L40.4636 20.8183L40.4636 22.6488C40.4636 23.4093 41.3273 23.7445 42.1394 23.7445C42.9386 23.7445 43.8152 23.3964 43.8152 22.6488L43.8152 20.8183L44.4468 20.8183C45.014 20.8183 45.5425 20.0578 45.5425 19.2585C45.5425 18.5109 45.1945 17.7117 44.4468 17.7117Z" fill="rgb(45,82,124)" fill-rule="nonzero" />
		<path id="Vector" d="M55.8937 17.7117L55.262 17.7117L55.262 16.5644C55.262 15.907 54.6046 15.4816 53.5863 15.4816C52.5679 15.4816 51.9105 15.907 51.9105 16.5644L51.9105 17.7117L50.7632 17.7117L54.0116 11.2148C54.0632 11.0859 54.1277 10.9312 54.1277 10.7765C54.1277 9.9644 53.0448 9.46167 52.4519 9.46167C51.8331 9.46167 51.3304 9.77104 51.0468 10.3253L46.664 18.9492C46.5093 19.2328 46.4835 19.4777 46.4835 19.6066C46.4835 20.3285 46.9605 20.8183 47.6566 20.8183L51.9234 20.8183L51.9234 22.6488C51.9234 23.4093 52.787 23.7445 53.5991 23.7445C54.4113 23.7445 55.2749 23.3964 55.2749 22.6488L55.2749 20.8183L55.9066 20.8183C56.4738 20.8183 57.0023 20.0578 57.0023 19.2585C57.0023 18.5109 56.6542 17.7117 55.8937 17.7117Z" fill="rgb(45,82,124)" fill-rule="nonzero" />
	</g>
</svg>
