<svg viewBox="0 0 64 66" xmlns="http://www.w3.org/2000/svg" xmlns:xlink="http://www.w3.org/1999/xlink" width="64.000000" height="66.000000" fill="none">
	<rect id="reception" width="64.000000" height="66.000000" x="0.000000" y="0.000000" fill="rgb(255,255,255)" fill-opacity="0" />
	<g id="Group">
		<path id="Vector" d="M54.025 49.7191L9.97503 49.7191C8.96253 49.7191 8.15002 48.8812 8.15002 47.8371L8.15002 45.8519C8.15002 32.291 18.85 21.2566 32 21.2566C34.4875 21.2566 36.9375 21.6562 39.2875 22.4296C40.25 22.7519 40.775 23.8089 40.475 24.8015C40.1625 25.7941 39.1375 26.3355 38.175 26.0261C36.1875 25.3687 34.1125 25.0335 32 25.0335C20.8625 25.0335 11.8 34.3792 11.8 45.8648L11.8 45.9679L52.2 45.9679L52.2 45.8648C52.2 40.2703 50.075 35.0109 46.225 31.0664C45.5125 30.3316 45.5 29.1457 46.2125 28.398C46.925 27.6632 48.075 27.6503 48.8 28.3851C53.35 33.0386 55.8625 39.239 55.8625 45.8519L55.8625 47.8371C55.85 48.8812 55.0375 49.7191 54.025 49.7191Z" fill="rgb(240,191,95)" fill-rule="nonzero" />
		<path id="Vector" d="M32 24.5825C30.9875 24.5825 30.175 23.7446 30.175 22.7004L30.175 17.3637C30.175 16.3196 30.9875 15.4817 32 15.4817C33.0126 15.4817 33.8251 16.3196 33.8251 17.3637L33.8251 22.7004C33.8251 23.7446 33.0126 24.5825 32 24.5825Z" fill="rgb(240,191,95)" fill-rule="nonzero" />
		<path id="Vector" d="M36.4751 18.8075L27.5251 18.8075C26.5126 18.8075 25.7001 17.9696 25.7001 16.9255C25.7001 15.8813 26.5126 15.0435 27.5251 15.0435L36.4751 15.0435C37.4876 15.0435 38.3001 15.8813 38.3001 16.9255C38.3001 17.9696 37.4876 18.8075 36.4751 18.8075Z" fill="rgb(240,191,95)" fill-rule="nonzero" />
	</g>
	<path id="Vector" d="M47.9875 47.8372L16 47.8372L16 55.7649L47.9875 55.7649L47.9875 47.8372Z" fill="rgb(206,232,250)" fill-rule="evenodd" />
	<path id="Vector" d="M48.0001 57.6469L16 57.6469C14.9875 57.6469 14.175 56.809 14.175 55.7648L14.175 47.8371C14.175 46.793 14.9875 45.9551 16 45.9551L48.0001 45.9551C49.0126 45.9551 49.8251 46.793 49.8251 47.8371L49.8251 55.7648C49.8251 56.809 49.0001 57.6469 48.0001 57.6469ZM17.8375 53.8828L46.1751 53.8828L46.1751 49.7191L17.8375 49.7191L17.8375 53.8828Z" fill="rgb(240,191,95)" fill-rule="nonzero" />
	<path id="Vector" d="M54.2375 61.8105L9.76248 61.8105C7.63748 61.8105 5.91248 60.0316 5.91248 57.8402C5.91248 55.6488 7.63748 53.8699 9.76248 53.8699L54.2375 53.8699C56.3625 53.8699 58.0875 55.6488 58.0875 57.8402C58.075 60.0316 56.3625 61.8105 54.2375 61.8105Z" fill="rgb(206,232,250)" fill-rule="nonzero" />
	<g id="Group">
		<path id="Vector" d="M54.2375 63.6925L9.76252 63.6925C6.63752 63.6925 4.08752 61.0757 4.08752 57.8401C4.08752 54.6046 6.62502 51.9878 9.76252 51.9878L54.2375 51.9878C57.3625 51.9878 59.9125 54.6175 59.9125 57.8401C59.9 61.0757 57.3625 63.6925 54.2375 63.6925ZM9.76252 55.7647C8.65002 55.7647 7.75002 56.6929 7.75002 57.8401C7.75002 58.9874 8.65002 59.9155 9.76252 59.9155L54.2375 59.9155C55.35 59.9155 56.25 58.9874 56.25 57.8401C56.25 56.6929 55.35 55.7647 54.2375 55.7647L9.76252 55.7647Z" fill="rgb(45,82,124)" fill-rule="nonzero" />
		<path id="Vector" d="M32.0001 9.73237C30.9876 9.73237 30.175 8.89448 30.175 7.85034L30.175 4.1894C30.175 3.14526 30.9876 2.30737 32.0001 2.30737C33.0126 2.30737 33.8251 3.14526 33.8251 4.1894L33.8251 7.85034C33.8251 8.89448 33.0126 9.73237 32.0001 9.73237Z" fill="rgb(45,82,124)" fill-rule="nonzero" />
		<path id="Vector" d="M62.175 35.3075L58.625 35.3075C57.6125 35.3075 56.8 34.4696 56.8 33.4255C56.8 32.3813 57.6125 31.5435 58.625 31.5435L62.175 31.5435C63.1875 31.5435 64 32.3813 64 33.4255C64 34.4696 63.1875 35.3075 62.175 35.3075Z" fill="rgb(45,82,124)" fill-rule="nonzero" />
		<path id="Vector" d="M5.375 35.3075L1.825 35.3075C0.8125 35.3075 0 34.4696 0 33.4255C0 32.3813 0.8125 31.5435 1.825 31.5435L5.375 31.5435C6.3875 31.5435 7.2 32.3813 7.2 33.4255C7.2 34.4696 6.3875 35.3075 5.375 35.3075Z" fill="rgb(45,82,124)" fill-rule="nonzero" />
		<path id="Vector" d="M49.5374 17.222C49.075 17.222 48.6 17.0415 48.25 16.6677C47.5375 15.9329 47.5375 14.7341 48.25 13.9993L50.75 11.4212C51.4625 10.6864 52.625 10.6864 53.3375 11.4212C54.05 12.156 54.05 13.3548 53.3375 14.0896L50.825 16.6806C50.475 17.0415 50 17.222 49.5374 17.222Z" fill="rgb(45,82,124)" fill-rule="nonzero" />
		<path id="Vector" d="M14.4625 17.2219C14 17.2219 13.525 17.0415 13.175 16.6676L10.6625 14.0766C9.95005 13.3418 9.95005 12.143 10.6625 11.4083C11.375 10.6735 12.5375 10.6735 13.25 11.4083L15.7626 13.9993C16.475 14.734 16.475 15.9329 15.7626 16.6676C15.4 17.0415 14.9375 17.2219 14.4625 17.2219Z" fill="rgb(45,82,124)" fill-rule="nonzero" />
	</g>
</svg>
