<svg viewBox="0 0 14.0002 13.413" xmlns="http://www.w3.org/2000/svg" xmlns:xlink="http://www.w3.org/1999/xlink" width="14.000183" height="13.412964" fill="none" customFrame="#000000">
	<path id="Vector" d="M13.6963 6.07841C13.9719 5.80985 14.0692 5.4157 13.9503 5.0493C13.8312 4.6829 13.5208 4.42134 13.1396 4.36584L9.74976 3.87329C9.60539 3.85226 9.48064 3.76171 9.41616 3.6308L7.90066 0.559429C7.7305 0.214335 7.38512 -0.00012207 7.00022 -0.00012207C6.6156 -0.00012207 6.27023 0.214335 6.10006 0.559429L4.58428 3.63108C4.51981 3.76199 4.39478 3.85254 4.2504 3.87357L0.860575 4.36612C0.479597 4.42134 0.168985 4.68318 0.0498417 5.04958C-0.0690209 5.41598 0.0282558 5.81013 0.303826 6.07869L2.75649 8.4694C2.86106 8.57144 2.90899 8.71834 2.88432 8.86187L2.30571 12.2377C2.25441 12.5348 2.33234 12.8239 2.52465 13.0518C2.82349 13.407 3.3452 13.5152 3.76234 13.296L6.79389 11.702C6.92061 11.6355 7.08012 11.6361 7.20655 11.702L10.2384 13.296C10.3858 13.3736 10.5431 13.4129 10.7054 13.4129C11.0017 13.4129 11.2826 13.2811 11.4758 13.0518C11.6684 12.8239 11.746 12.5343 11.6947 12.2377L11.1158 8.86187C11.0912 8.71806 11.1391 8.57144 11.2437 8.4694L13.6963 6.07841Z" fill="rgb(240,191,95)" fill-rule="nonzero" />
</svg>
